# xmcd
#
# Track frame offsets:
#	150
#	13601
#	26980
#	45711
#	57842
#	71749
#	85704
#	97715
#
# Disc length: 1530 seconds
#
# Revision: 1
# Processed by: cddbd v1.5.2PL0 Copyright (c) Steve Scherf et al.
# Submitted via: audiograbber 1.83.01
#
DISCID=5d05f808
DTITLE=Jauchebiber - Demo
DYEAR=2003
DGENRE=Metal
TTITLE0=Follow the fool
TTITLE1=Nemesis
TTITLE2=Blessed
TTITLE3=Fly
TTITLE4=Biberbeat
TTITLE5=Shame on you
TTITLE6=Broken wings
TTITLE7=600°C
EXTD=
EXTT0=
EXTT1=
EXTT2=
EXTT3=
EXTT4=
EXTT5=
EXTT6=
EXTT7=
PLAYORDER=
